<svg xmlns="http://www.w3.org/2000/svg" width="256" height="256"><path fill-opacity=".224" d="M0 127.511v85.497l128.25-.254 128.25-.254.256-85.5.255-85.5-128.505.258L0 42.015v85.496m.478-.011c0 47.3.122 66.504.272 42.675.149-23.829.149-62.529 0-86C.6 60.704.478 80.2.478 127.5m143.601 1.083c.048 1.165.285 1.402.604.605.289-.722.253-1.585-.079-1.917-.332-.332-.568.258-.525 1.312m-23.622 16.854c-.366 2.441-.429 5.029-.14 5.75.289.722.568-.037.619-1.687.073-2.319.315-2.659 1.064-1.5.582.901.975 1.025.985.309.008-.655-.375-1.432-.851-1.726-.476-.294-.649-1.671-.383-3.059.265-1.388.232-2.524-.073-2.524-.306 0-.855 1.997-1.221 4.437m2.622-1.854c.048 1.165.285 1.402.604.605.289-.722.253-1.585-.079-1.917-.332-.332-.568.258-.525 1.312m-.079 7.476c0 .582.45.781 1 .441s1-.816 1-1.059-.45-.441-1-.441-1 .477-1 1.059m11.079 7.524c.048 1.165.285 1.402.604.605.289-.722.253-1.585-.079-1.917-.332-.332-.568.258-.525 1.312m-7.101 1.976c-1.757 4.62-2.34 10.441-1.047 10.441.653 0 .922-.429.597-.954-.324-.525-.286-2.162.085-3.639l.673-2.684 1.21 2.888c1.156 2.762 1.192 2.692.802-1.611-.225-2.475-.458-5.062-.52-5.75-.17-1.912-.731-1.505-1.8 1.309m6.18 3.441c0 1.375.227 1.938.504 1.25.278-.687.278-1.812 0-2.5-.277-.687-.504-.125-.504 1.25m-13.079.583c.048 1.165.285 1.402.604.605.289-.722.253-1.585-.079-1.917-.332-.332-.568.258-.525 1.312m3 0c.048 1.165.285 1.402.604.605.289-.722.253-1.585-.079-1.917-.332-.332-.568.258-.525 1.312m-.412 8.084c-1.117 1.116-.749 2 .833 2 .825 0 1.5-.6 1.5-1.334 0-1.419-1.229-1.77-2.333-.666m27.528 4.833c.02 1.65.244 2.204.498 1.231.254-.973.237-2.323-.037-3-.274-.677-.481.119-.461 1.769M122 180.059c0 .582.45.781 1 .441s1-.816 1-1.059-.45-.441-1-.441-1 .477-1 1.059" fill="#1976D2" fill-rule="evenodd"/><path fill-opacity=".293" d="M30.697 42.75c-.78 1.389-.505 11.25.328 11.765.454.281 1.871.105 3.15-.391s5.812-1.931 10.075-3.189c7.654-2.259 7.75-2.328 7.75-5.611V42H41.559c-5.743 0-10.631.337-10.862.75M55 46.418c0 5.035-.815 7.815-2.064 7.042-.47-.29-1.66-.09-2.645.446-.985.535-3.028 1.234-4.541 1.553-3.531.744-3.621 2.567-.095 1.927 3.93-.713 5.892.25 4.335 2.126-1.01 1.217-.928 1.488.45 1.488 1.157 0 1.587-.677 1.373-2.157-.172-1.186.25-2.349.937-2.583 1.616-.551 1.731 7.325.122 8.319-.765.473-.576 1.007.584 1.656 1.152.645 1.527 1.695 1.147 3.211-.311 1.238-.82 8.473-1.132 16.076-.57 13.909-.824 15.478-2.505 15.478-.547 0-.559-.941-.029-2.333.494-1.301.509-2.946.032-3.717-.493-.798-.435-1.888.137-2.577 1.257-1.515.095-2.221-3.106-1.888-1.375.143-4.202.317-6.281.387-2.08.071-3.979.691-4.221 1.378-2.743 7.813-3.312 8.256-3.986 3.11a217.66 217.66 0 0 0-.443-3.265c-.038-.223-1.026.452-2.196 1.5-1.907 1.707-2.232 1.741-3.137.326-.839-1.312-1.824-1.418-5.818-.628-5.311 1.05-6.747 3.256-6.123 9.408.321 3.163.382 3.197 5.015 2.83 2.579-.204 6.603-.407 8.94-.451 3.834-.072 4.25-.322 4.25-2.555 0-2.199.268-2.374 2.397-1.564 1.319.501 2.669.64 3 .308.332-.331.603.106.603.971 0 1.08-.626 1.409-2 1.05-1.118-.293-2-.031-2 .593 0 .615.638 1.117 1.418 1.117.78 0 2.097.26 2.927.579.979.376 2.047-.414 3.042-2.25.843-1.556 1.551-2.266 1.573-1.579.022.701 1.304 1.25 2.918 1.25 4.577 0 5.329 1.778 4.295 10.151-.5 4.042-.691 8.817-.425 10.612l.483 3.262-5.366-.175c-9.908-.323-10.691-.119-11.149 2.9l-.416 2.75-.15-2.633c-.178-3.122-2.099-3.834-10.4-3.853-4.429-.011-6.21.446-7.75 1.986-2.742 2.742-2.533 4.172.5 3.411 1.54-.387 2.5-.202 2.5.481 0 1.145-.8 1.394-4.901 1.529-1.456.048-2.501.749-2.655 1.783-.334 2.243 4.059 3.594 12.972 3.989l6.916.307.399-2.982c.22-1.64.62-3.202.889-3.471.87-.871 2.349 2.377 2.365 5.195.013 2.45.334 2.706 3.019 2.412 1.652-.181 3.298-.623 3.658-.983.36-.359 1.255-.155 1.99.455.735.61 2.471.893 3.857.627 2.029-.387 2.64-.009 3.127 1.934.396 1.578.07 2.831-.943 3.614-.881.682-1.836 3.595-2.212 6.751-.528 4.428-.34 5.82.928 6.873 2.646 2.196 1.829 3.827-2.159 4.311-2.062.25-3.975.124-4.25-.28-.483-.709-7.58-2.939-9.389-2.95-1.387-.009.053 12.161 1.557 13.156.733.485 4.595 1.862 8.582 3.06C50.582 179.275 53.576 182 49 182c-1.807 0-2 .667-2 6.893 0 5.205.367 7.034 1.5 7.469.825.316 1.5 1.317 1.5 2.223 0 1.789.239 1.828-9.414-1.532-3.252-1.132-6.003-1.945-6.112-1.806-.109.139-.453 2.842-.764 6.007l-.566 5.754 6.241 3.011 6.241 3.01 47.125-.059 47.124-.058 4.812-9.666 4.813-9.665-.251-15.696c-.379-23.686 2.985-37.734 11.049-46.139 2.311-2.408 6.449-7.499 9.196-11.312 4.736-6.577 5.01-6.789 5.323-4.117l.329 2.818 2.379-2.568c2.624-2.83 4.532-3.557 2.347-.894-1.222 1.491-1.126 1.611.878 1.094 1.972-.508 2.259-.189 2.32 2.577.039 1.736.414 4.033.833 5.105.666 1.702.91 1.526 1.93-1.399.642-1.842 1.169-4.969 1.172-6.949l.005-3.601 2.47 3c1.359 1.65 3.043 4.239 3.741 5.754.775 1.68 2.575 3.184 4.618 3.858 5.547 1.83 9.88 6.831 10.709 12.357.569 3.799.921 4.444 1.682 3.085.529-.945.657-3.342.285-5.326-.588-3.136-.48-3.444.827-2.36 1.705 1.416 4.134 7.544 2.618 6.607-.528-.326-.96-.116-.96.466 0 .582.563 1.066 1.25 1.074.881.011.832.28-.166.912-1.138.72-.804 1.507 1.711 4.022 2.674 2.674 2.988 3.492 2.166 5.654-.529 1.39-.961 3.43-.961 4.534 0 1.885.102 1.904 1.694.312 1.591-1.591 1.775-1.46 3.056 2.179 1.5 4.262 1.937 18.318.789 25.372-.403 2.475-1.83 6.498-3.171 8.939l-2.439 4.44 2.536 2.351c3.023 2.804 3.212 4.28.634 4.954-1.045.274-2.112 1.469-2.371 2.657-.259 1.187-.805 2.956-1.214 3.93-.7 1.666.463 1.755 19.621 1.5l20.365-.271.001-79c.001-43.45-.164-81.812-.366-85.25l-.368-6.25H55v4.418m-35 .117c-3.575 1.311-7.506 2.402-8.737 2.424-2.175.04-10.149 4.877-10.225 6.203-.021.363.749.543 1.712.398 1.221-.183 2.121.827 2.978 3.339.675 1.981 1.027 2.455.782 1.055-.528-3.017.7-8.191 2.052-8.641.543-.181.799 1.616.595 4.185C8.806 59.909 8.859 60 11.785 60c1.643 0 4.275-.672 5.851-1.494 1.575-.821 3.681-1.496 4.68-1.5C26.63 56.992 28 55.174 28 49.465c0-3.006-.337-5.431-.75-5.389-.413.042-3.675 1.149-7.25 2.459m7.675 12.464c-3.755 1-6.955 1.972-7.112 2.16-.158.187-.542 2.929-.853 6.091l-.566 5.751 4.178-.666c2.298-.366 6.428-1.163 9.178-1.77l5-1.104.298-6.231c.345-7.229.65-7.101-10.123-4.231m12.661-.432c-.827 2.154.603 3.32 4.43 3.612 1.843.14 3.234.8 3.234 1.534 0 .708.45 1.287 1 1.287 1.323 0 1.216-1.148-.282-3.03-.67-.842-2.568-1.517-4.218-1.5-2.254.022-2.965-.405-2.861-1.72.172-2.173-.503-2.268-1.303-.183M1.75 62.662c.688.278 1.813.278 2.5 0 .688-.277.125-.504-1.25-.504s-1.937.227-1.25.504m8.175 1.766C1.065 66.373 1 66.423 1 71.352c0 3.684.358 4.508 2.162 4.98 1.189.311 2.876.191 3.75-.267.873-.458 3.45-1.141 5.727-1.518 3.602-.596 4.218-1.081 4.75-3.741.965-4.828.718-7.815-.639-7.704-.687.057-3.759.653-6.825 1.326m30.344-.825c.332.331.193 1.681-.308 3-1.073 2.822.202 3.1 4.039.88l2.5-1.447-2.5.232c-1.892.176-2.429-.193-2.206-1.518.161-.962-.251-1.75-.917-1.75s-.939.271-.608.603m94.966 7.647c-2.414 2.988-3.06 17.409-1.186 26.469.973 4.704 4.836 11.471 4.918 8.614.018-.641-.529-1.393-1.217-1.671-.961-.388-.948-.522.059-.583.72-.043 1.027-.535.683-1.092-.344-.557.081-2.43.945-4.162.865-1.732 1.457-3.213 1.317-3.29-4.187-2.31-5.754-3.937-5.754-5.975 0-1.316.563-2.661 1.25-2.988.688-.327.211-.399-1.058-.161-1.744.326-2.229.024-1.983-1.239.254-1.306 1.541-1.696 5.871-1.783 6.436-.128 13.221-2.093 12.311-3.565-.362-.586-2.374-.764-4.759-.422-4.629.666-8.572-.819-5.104-1.921C149.627 74.906 152.529 72 147 72c-1.65 0-3 .528-3 1.174 0 .646-1.042.196-2.314-1-2.603-2.445-4.951-2.781-6.451-.924m-89.785.658c-.522.499-3.2 1.157-5.95 1.461-12.281 1.359-13.596 1.752-14.586 4.358-.524 1.377-.773 4.59-.553 7.139l.399 4.634h4.522c2.487 0 4.337-.301 4.111-.669-.226-.367 1.056-.968 2.848-1.335 1.793-.367 4.927-1.144 6.966-1.727 3.289-.94 3.587-1.285 2.643-3.05-.86-1.607-1.236-1.723-1.957-.604-.752 1.166-1.049 1.148-1.878-.115-.541-.825-.984-1.95-.984-2.5s.451-.325 1.003.5c.867 1.296 1.21 1.23 2.517-.485 1.496-1.963 1.52-1.96 2.098.25.734 2.806 2.351 2.927 2.351.176 0-1.132-.45-1.781-1-1.441-.55.34-1 .145-1-.433 0-.577.9-1.612 2-2.299 2.802-1.75 2.612-4.768-.3-4.768-1.265 0-2.728.409-3.25.908m50.119 2.629c-1.425 1.898-2.111 2.213-2.722 1.25-.566-.893-.821-.616-.832.904-.008 1.205-.465 2.469-1.015 2.809-.55.34-1-.309-1-1.441 0-3.746-1.998-2.135-2.098 1.691l-.098 3.75L86.5 79l-1.304-4.5-.098 6.372c-.08 5.225.144 6.172 1.244 5.259.738-.612 1.604-.851 1.925-.531.321.321 1.404.058 2.408-.584 1.624-1.039 1.632-1.107.075-.623-2.179.677-2.263-.737-.169-2.831 1.664-1.664 3.573-1.227 3.327.763-.08.646-.092 2.243-.026 3.547.096 1.929.383 2.153 1.534 1.197 1.125-.933 1.513-.803 1.884.628.258.992.52-2.134.584-6.947.064-4.812-.002-8.75-.147-8.75-.144 0-1.12 1.142-2.168 2.537m-50.931.963c-.338.881-.013 1.5.786 1.5.749 0 1.621-.675 1.938-1.5.338-.881.013-1.5-.786-1.5-.749 0-1.621.675-1.938 1.5m37.055 3.109c.268 6.415 1.307 6.858 1.307.558 0-2.842-.338-5.167-.75-5.167s-.663 2.074-.557 4.609M33 76.333c0 .917.401 1.667.892 1.667.49 0 1.174 1.125 1.519 2.5s1.28 2.5 2.078 2.5c1.075 0 .796-.964-1.076-3.724C33.16 74.484 33 74.345 33 76.333m62.7.008c-.283.737-.113 1.975.377 2.75.65 1.025.897.66.908-1.341.016-2.986-.474-3.524-1.285-1.409m7.737 2.781c-.537 1.858-.694 5.178-.349 7.378.346 2.2.692 3.009.77 1.797.078-1.212.644-3.305 1.258-4.652.728-1.597.8-3.398.207-5.176l-.909-2.726-.977 3.379m-82.873-.415c-.542 1.425-.428 1.54.56.56.684-.679.991-1.486.683-1.793-.308-.308-.867.247-1.243 1.233m7.515.876c.048 1.165.285 1.402.604.605.289-.722.253-1.585-.079-1.917-.332-.332-.568.258-.525 1.312M11.5 80c.34.55.816 1 1.059 1s.441-.45.441-1-.477-1-1.059-1-.781.45-.441 1M74 81.059c0 .582.45.781 1 .441s1-.816 1-1.059S75.55 80 75 80s-1 .477-1 1.059M20.781 82.25c-.395.963-.459 2.425-.143 3.25.317.825.078 1.5-.531 1.5s-1.121-.562-1.139-1.25c-.019-.763-.549-.569-1.36.5-1.545 2.035-3.608 2.316-3.608.491 0-.693-.9-1.822-2-2.509-1.668-1.042-2-.999-2 .26 0 .829.627 1.508 1.393 1.508s1.652.675 1.969 1.5c.554 1.444-1.48 1.88-8.612 1.849-2.352-.01-2.228 1.293.182 1.923 2.059.538 15.614-1.485 16.609-2.479.325-.326.449-2.325.275-4.443-.222-2.71-.529-3.332-1.035-2.1m79.414 2.25c.02 1.65.244 2.204.498 1.231.254-.973.237-2.323-.037-3-.274-.677-.481.119-.461 1.769M30 84.972c0 1.356 1.777 2.198 2.425 1.149.31-.501-.109-1.169-.931-1.485-.822-.315-1.494-.164-1.494.336m14.849 9.053c-.231 1.636-1.084 2.58-2.514 2.783-1.191.17-2.424.981-2.739 1.802-.324.844-.143 1.228.415.883.544-.336 1.004-.022 1.022.698.02.767.802.388 1.891-.917 1.039-1.245 3.197-2.328 4.897-2.457 2.735-.209 3.603-1.817.98-1.817-.594 0-1.648-.776-2.342-1.725-1.148-1.571-1.292-1.504-1.61.75m-33.456 1.557c.334.87.607 1.995.607 2.5 0 .505.45.918 1 .918s1-1.125 1-2.5c0-1.63-.56-2.5-1.607-2.5-1.055 0-1.398.544-1 1.582m133.277-.165c-.299.78.059 1.649.795 1.931 1.735.666 2.538-.176 1.859-1.946-.692-1.803-1.959-1.796-2.654.015M5.305 96.499c-1.176.824-2.328 1.161-2.558.75-.231-.412-.288-.201-.127.469.161.67-.138 1.484-.664 1.809-.526.325-.956 1.675-.956 3.001 0 1.727.423 2.247 1.494 1.836.822-.316 1.246-.976.941-1.469-.304-.492-.108-.895.436-.895.545 0 1.134-1.013 1.31-2.25.197-1.387.968-2.201 2.009-2.121.929.071 1.927-.492 2.218-1.25.698-1.819-1.424-1.757-4.103.12m8.069 4.968c-.309.807-.37 2.044-.134 2.75s.666.046.956-1.467c.566-2.953.099-3.682-.822-1.283M8.592 103.5c-1.589 2.426-1.567 2.5.746 2.5 2.004 0 2.308-.399 1.907-2.5-.263-1.375-.599-2.5-.747-2.5-.147 0-1.005 1.125-1.906 2.5m136.221-1.817c.721.289 1.584.253 1.916-.079.332-.332-.258-.568-1.312-.525-1.165.048-1.402.285-.604.604m1.899 2.429c.79.79 1.937.813 3.95.079 2.806-1.022 2.794-1.034-1.112-1.112-2.9-.058-3.654.217-2.838 1.033m-3.065 2.365c-.286.747.126 1.606.916 1.909.79.303 1.437 1.483 1.437 2.622 0 1.722.236 1.854 1.4.781.909-.837 1.069-1.693.458-2.442-.606-.742-.53-1.29.214-1.538.635-.211.017-.903-1.375-1.537-2.011-.917-2.635-.875-3.05.205m-132.909 3.302c-.969.205-1.525.757-1.234 1.228.291.47.071 1.137-.488 1.483-.559.345-1.016.151-1.016-.431S7.55 111 7 111s-1 2.22-1 4.933c0 5.753-.028 5.739 10.974 5.636l7.473-.069.049-6.048.049-6.049-4.523.049c-4.218.045-4.544.24-4.849 2.907-.234 2.043.052 2.721 1 2.375.73-.266 1.22-.974 1.089-1.573s.337-.868 1.039-.599c.703.27 1.352 1.485 1.444 2.701.131 1.744-.033 1.897-.774.724-.517-.818-.947-1.015-.956-.437-.008.577.517 1.582 1.168 2.233 1.796 1.796.119 2.712-2.953 1.612-2.31-.827-2.682-1.468-2.419-4.166.384-3.929-.75-5.94-3.073-5.45m32.262.788c0 1.125-.579 1.384-2.048.918-1.126-.358-2.712-.099-3.524.575-.812.674-1.765.936-2.119.583-.353-.354-.117-.643.524-.643.642 0 1.167-.45 1.167-1s-1.764-1-3.921-1c-3.605 0-3.979.261-4.655 3.25-.404 1.787-.815 4.442-.913 5.899l-.177 2.65 10.333.079c9.756.075 10.333-.035 10.333-1.958 0-1.121-.453-1.758-1.007-1.416-1.333.824-2.383-2.046-1.546-4.226.566-1.475.794-1.511 1.591-.25.712 1.126.935.85.947-1.171.008-1.499-.67-2.906-1.567-3.25-2.524-.969-3.418-.718-3.418.96M1.153 116c-.021 2.75.355 5 .837 5 1.161 0 2.304-3.716 1.528-4.97-.336-.544-.124-1.898.471-3.009.912-1.705.778-2.021-.858-2.021-1.655 0-1.945.732-1.978 5m30.43-3.357c-.837 2.182.275 3.196 1.456 1.328 1.183-1.87 1.208-2.971.068-2.971-.491 0-1.177.739-1.524 1.643m8.017.957c-.356.927-.422 1.911-.147 2.186.275.275.791-.259 1.147-1.186.356-.927.422-1.911.147-2.186-.275-.275-.791.259-1.147 1.186m2.007.982c-.867 2.258-.784 2.423.893 1.78.825-.317 1.5-1.203 1.5-1.969 0-1.895-1.643-1.765-2.393.189m-3.478 4.126c-.621.664-1.129 1.452-1.129 1.75 0 .942 3.855.585 4.473-.414.325-.526 1.257-.701 2.07-.389 1.016.39 1.299.097.903-.934-.673-1.754-4.683-1.763-6.317-.013m101.12 2.34c-7.424 4.117-13.598 9.461-15.361 13.296-.546 1.186-1.744 3.506-2.662 5.156-1.191 2.138-1.758 6.017-1.976 13.5-.479 16.485-1.259 22.667-2.858 22.667-.766 0-1.424-.713-1.462-1.584-.052-1.164-.298-1.054-.93.417-1.241 2.888-1.241 17.767 0 17 .55-.34 1-.141 1 .441s-.45 1.059-1 1.059-.939 1.238-.864 2.75c.117 2.355.199 2.427.569.502.355-1.841.769-2.069 2.284-1.258 1.314.704 2.02.631 2.438-.252.324-.683.423 1.908.221 5.758-.677 12.911.259 13.046 6.038.869 6.627-13.966 6.901-14.943 9.347-33.325 2.161-16.249 3.838-21.505 8.858-27.769 2.729-3.405 3.023-4.462 2.998-10.778-.015-3.852.443-8.24 1.017-9.75.575-1.511.718-2.741.319-2.734-.399.007-3.988 1.823-7.976 4.035M177.5 118c-.34.55-.141 1 .441 1s1.059-.45 1.059-1-.198-1-.441-1-.719.45-1.059 1m-28 1c.34.55 1.068 1 1.618 1s.722-.45.382-1c-.34-.55-1.068-1-1.618-1s-.722.45-.382 1m30.5.5c0 .825.177 1.5.393 1.5.216 0 .652-.675.969-1.5.316-.825.139-1.5-.393-1.5-.533 0-.969.675-.969 1.5m-30 3.322c0 .477.855 1.642 1.901 2.588 1.59 1.439 2.536 1.55 5.781.676 2.134-.575 4.766-1.751 5.849-2.613 1.861-1.481 1.779-1.53-1.498-.893-1.907.371-4.225 1.148-5.152 1.726-1.257.786-2.344.621-4.283-.65-1.429-.936-2.598-1.311-2.598-.834M1 129.943V136h4.5c3.587 0 4.5-.348 4.5-1.718 0-1.792 4.542-6.282 6.356-6.282 1.531 0-1.021-2.334-2.846-2.601-.897-.132-1.51.553-1.51 1.689 0 2.675-1.792 2.397-2.18-.338-.266-1.87-1.037-2.302-4.57-2.557L1 123.885v6.058M214.173 131c1.404 2.475 3.101 5.551 3.771 6.836.67 1.284 1.432 2.121 1.694 1.86.81-.811-3.65-9.401-5.893-11.35-1.934-1.68-1.895-1.44.428 2.654m-185.76-.583c.308 1.146.566 2.421.573 2.833a.767.767 0 0 0 .764.748c.413-.002.794-1.277.848-2.834.063-1.826-.406-2.831-1.323-2.831-.952 0-1.237.687-.862 2.084m10.114 6.389c-.634.634.38 2.194 1.425 2.194.459 0 1.064-.6 1.346-1.333.475-1.24-1.712-1.919-2.771-.861M1.07 144.691c.051 4.17.313 5.245.93 3.809 1.2-2.793 1.2-8.258 0-9-.626-.387-.974 1.557-.93 5.191m3.93-.076c0 5.724.275 5.985 7 6.641 1.375.134 2.757.59 3.07 1.012.314.423 2.025 1.186 3.803 1.695 3.697 1.061 3.952.731 4.443-5.74.374-4.929-.33-5.725-5.816-6.567-2.2-.338-5.912-1.013-8.25-1.501L5 139.269v5.346m20 3.164c0 6.844.678 8.221 4.048 8.221 1.559 0 3.1.43 3.425.956.325.526 1.234.71 2.021.408.786-.302 2.793.131 4.459.963 1.89.942 3.259 1.14 3.639.524.336-.543 1.24-.746 2.009-.451 1.659.637 1.669-.912.046-7.9-1.286-5.541-.17-5.009-14.897-7.103l-4.75-.676v5.058m164.484.971c.345 3.162 1.259 10.7 2.03 16.75 1.832 14.375 2.941 28.124 2.622 32.5-.14 1.925-.353 6.088-.473 9.25l-.218 5.75h3.149c3.002 0 3.177-.221 3.771-4.75.488-3.729.046-6.362-2.057-12.25-2.017-5.644-2.719-9.604-2.835-16-.085-4.675-.639-9.625-1.231-11-.592-1.375-1.637-7.787-2.322-14.25-.684-6.463-1.654-11.75-2.154-11.75-.514 0-.636 2.504-.282 5.75m-16.316 10.5c-.635 4.537-1.402 10.5-1.704 13.25-.302 2.75-.999 8.375-1.549 12.5-.55 4.125-1.221 11.325-1.49 16-.27 4.675-.659 9.287-.864 10.25-.223 1.042.221 1.75 1.095 1.75.809 0 1.39-.787 1.292-1.75-.588-5.777 1.351-6.717 2.555-1.239.45 2.053 1.257 2.989 2.576 2.989 2.537 0 2.461-.355-1.215-5.698-3.372-4.9-3.339-4.377-1.444-22.802.226-2.2.676-7.6 1-12 .324-4.4.858-11.037 1.186-14.75.328-3.713.399-6.75.157-6.75-.243 0-.96 3.713-1.595 8.25M1 156.5c0 2.125.491 3.506 1.25 3.515.893.011.852.268-.146.899C.179 162.133 1.488 165 3.969 165c1.117 0 2.031.525 2.031 1.167 0 .641.284.882.631.535.348-.347 1.391-.225 2.32.272 1.486.795 1.679.284 1.618-4.286C10.487 156.517 9.684 155 6.5 155c-1.31 0-2.66-.45-3-1-1.287-2.083-2.5-.87-2.5 2.5m219-3.107c0 .216.698.661 1.552.989.89.341 1.291.173.941-.393-.587-.951-2.493-1.406-2.493-.596M4 156.191C4 157.461 7.238 163 7.98 163c1.36 0-.029-3.734-2.08-5.59-1.045-.946-1.9-1.494-1.9-1.219m9.739 4.721c-1.012 7.546.02 8.785 7.876 9.451 2.174.184 4.92.853 6.103 1.486 1.183.633 2.449 1.151 2.815 1.151.677 0 .066-11.761-.644-12.411-.385-.352-7.975-2.253-12.995-3.254-2.407-.48-2.648-.208-3.155 3.577m188.825-2.205c-.542 1.425-.428 1.54.56.56.684-.679.991-1.486.683-1.793-.308-.308-.867.247-1.243 1.233M219 158c0 .55.477 1 1.059 1s.781-.45.441-1-.816-1-1.059-1-.441.45-.441 1M3.6 170.6c-.33.86-.6 3.285-.6 5.388 0 3.808.033 3.839 7.25 6.807 12.709 5.226 11.897 5.363 11.55-1.952-.257-5.424-.584-6.37-2.3-6.651-1.1-.18-3.418-.972-5.151-1.76-1.733-.788-3.9-1.432-4.816-1.432-.915 0-2.49-.442-3.499-.982-1.379-.738-1.983-.593-2.434.582m67.451.181c-1.831 1.972-2.723 12.947-1.177 14.493.619.619 1.126 1.884 1.126 2.809 0 2.024 3.888 3.255 5.654 1.789.692-.574 1.728-.754 2.302-.399.698.431 1.044-2.547 1.044-8.973 0-5.595-.385-9.38-.919-9.05-.506.313-1.595-.107-2.42-.932-1.136-1.136-1.623-1.199-2.005-.259-.371.914-.721.941-1.33.102-.596-.823-1.229-.706-2.275.42m19.036-.386c-.637.768-2.692 1.684-4.567 2.035-3.111.584-3.464 1.015-4.054 4.948-.355 2.369-.247 6.291.241 8.715.84 4.172 1.053 4.391 3.998 4.105 2.314-.224 3.517.281 4.702 1.973 1.218 1.739 1.593 1.888 1.593.635 0-.902.477-1.798 1.06-1.993 1.686-.562 2.435-15.205.959-18.766-1.399-3.379-2.214-3.721-3.932-1.652m6.549 1.834c-.335 1.249-.615 6.953-.622 12.676L96 195.31l2.09-1.892c1.988-1.798 2.154-1.805 3.378-.131 1.199 1.64 1.331 1.605 1.941-.514.643-2.231.678-2.221 1.885.574 1.34 3.105 2.515 3.561 3.829 1.488.682-1.076.872-1.044.977.165.339 3.902 1.791-7.407 1.842-14.344.052-7.028-.15-7.898-1.942-8.366-1.1-.288-2.007-1.033-2.015-1.657-.009-.633-.415-.503-.92.297-1.15 1.817-4.115 2.274-5.781.891-.706-.586-1.284-.731-1.284-.321s-.62.23-1.378-.399c-1.089-.904-1.505-.668-1.986 1.128M1.252 174.5c.011 2.2.216 2.982.455 1.738.239-1.244.23-3.044-.02-4s-.446.062-.435 2.262M24 181.308v6.307l3.75 1.538c3.216 1.319 12.984 4.567 17.013 5.657.941.255 1.214-1.434 1.075-6.638l-.188-6.979-7.075-2.236c-3.891-1.23-8.109-2.624-9.372-3.097-4.731-1.772-5.203-1.278-5.203 5.448m-23 5.607c0 4.805.103 4.972 4.626 7.5 2.544 1.422 4.907 2.585 5.25 2.584.343 0 .758-2.078.922-4.618.324-5.019-1.639-8.381-4.894-8.381-.982 0-2.064-.45-2.404-1-.34-.55-1.266-1-2.059-1C1.382 182 1 183.302 1 186.915m40.667-4.248c-.367.366-.667 1.298-.667 2.071 0 1.164.257 1.148 1.5-.095.825-.825 1.5-1.757 1.5-2.072 0-.782-1.517-.72-2.333.096m-27.969 4.969c-.384.383-.698 3.036-.698 5.894v5.197l5.75 2.573c12.155 5.44 13.923 5.6 12.215 1.107-.636-1.672-.621-2.312.045-1.901.552.342 1.276-.087 1.608-.953.912-2.378-4.221-8.553-7.11-8.553-1.314 0-2.635-.396-2.934-.881-.3-.484-1.564-1.101-2.809-1.371-1.246-.27-2.964-.788-3.817-1.151-.854-.362-1.866-.345-2.25.039M1.31 201.5c.005 3.3.192 4.529.415 2.732.222-1.797.218-4.497-.01-6-.229-1.503-.411-.032-.405 3.268m99.69-3.941c0 .857.45 1.281 1 .941.55-.34 1-1.041 1-1.559s-.45-.941-1-.941-1 .702-1 1.559m-97.129 2.124c-.618 8.703-.847 8.149 4.629 11.18 3.609 1.997 5.174 2.185 16 1.925l12-.288-5.737-2.817c-5.869-2.883-7.673-2.854-7.881.126-.065.93-.403.341-.75-1.309-.525-2.491-1.736-3.527-7.132-6.105-9.492-4.535-10.974-4.896-11.129-2.712M178.219 210c.047 1.65.617 3 1.266 3s1.068-1.012.931-2.25l-.333-3c-.046-.412-.503-.75-1.016-.75s-.895 1.35-.848 3M1 211.465c0 .868.869 1.535 2 1.535 1.1 0 2-.209 2-.465 0-.255-.9-.946-2-1.535-1.596-.854-2-.76-2 .465M211 212c0 .55.477 1 1.059 1s.781-.45.441-1-.816-1-1.059-1-.441.45-.441 1" fill="#1976D2" fill-rule="evenodd"/><path fill-opacity=".485" d="M55.798 49.75c-.385 8.282-.063 10.276 1.312 8.107.622-.983.864-.714.875.976.009 1.42.504 2.169 1.265 1.913.688-.232 1.781.293 2.43 1.166 1.055 1.421 1.402 1.351 3.289-.662 1.16-1.237 2.381-2.25 2.714-2.25.333 0 .326 5.963-.017 13.25-.342 7.287-1.074 27.425-1.626 44.75-.553 17.325-1.234 37.463-1.515 44.75-.325 8.442-.15 13.25.483 13.25.545 0 .992.675.992 1.5s-.45 1.5-1 1.5c-1.373 0-1.262 3.338.158 4.758.876.876.866 1.508-.042 2.602-.938 1.131-.918 1.575.092 2.043.922.426.964.754.148 1.145-.629.301-.896 1.497-.592 2.656.303 1.16.143 1.859-.356 1.554-.513-.314-1.056 3.967-1.248 9.844-.32 9.801-.226 10.398 1.635 10.398 1.867 0 2.021-1.043 2.839-19.25.476-10.588.718-21.95.536-25.25-.426-7.76 1.708-72.544 2.882-87.5 1.225-15.598 2.724-25.425 3.939-25.83.555-.185 1.009-1.254 1.009-2.376 0-1.699.25-1.831 1.5-.794 1.254 1.041 1.5.893 1.5-.902 0-1.351.897-2.488 2.416-3.066 1.328-.505 2.651-1.731 2.939-2.725.288-.994.371 2.243.185 7.193-.327 8.663.157 8.663 1.997 0l.637-3 2.302 2.877c1.293 1.617 2.796 2.573 3.43 2.181.619-.383.897-1.068.616-1.522-.281-.455.162-1.084.984-1.4.822-.315 1.534-1.6 1.583-2.855.195-4.956 2.881 8.139 3.02 14.719l.148 7 .985-5.75c.542-3.163 1.447-5.75 2.011-5.75 1.441 0 3.677-3.16 3.715-5.25.018-.962.502-1.75 1.076-1.75.574 0 .971-.562.881-1.25-.402-3.101.162-6.75 1.044-6.75.532 0 .709.675.393 1.5-.317.825-.078 1.5.531 1.5.677 0 1.119 2.232 1.139 5.75.028 5.123.183 5.55 1.42 3.917 1.338-1.765 1.429-1.758 2.469.185.593 1.109 1.16 6.434 1.259 11.832.099 5.399.32 7.566.491 4.816.797-12.818 1.348-15.017 4.714-18.8 1.811-2.035 3.516-3.7 3.789-3.7.974 0 .8 8.18-.213 10.074-.723 1.349-.691 2.561.104 4.048l1.136 2.121 1.649-2.371c.908-1.305 2.495-2.517 3.527-2.695 1.522-.262 1.764.123 1.283 2.042-.327 1.3-.844 5.046-1.149 8.323-.567 6.076-.19 5.894 2.552-1.238.592-1.539 1.98-2.374 4.641-2.791 2.088-.327 5.466-1.039 7.508-1.582C151.949 65.403 159 67.969 159 71.584c0 .7.674 1.947 1.497 2.77 2.283 2.283.843 4.291-4.061 5.664-5.866 1.642-5.648 2.805.418 2.222 6.866-.66 8.907.699 8.993 5.986.039 2.351.338 6.674.665 9.607.394 3.524.184 5.829-.62 6.797-.898 1.082-1.406 1.157-1.944.285-.485-.784-.956-.465-1.406.953-.372 1.173-1.209 2.137-1.859 2.142-.651.006-1.961 1.861-2.911 4.123-1.346 3.204-2.15 4.001-3.639 3.612-1.052-.275-2.5-.136-3.22.309-.927.572-.518 1.007 1.401 1.489 2.473.62 7.951-1.309 15.922-5.607 2.279-1.228 4.764-1.195 4.764.064 0 2.094 1.759.863 3.57-2.5 1.818-3.377 3.43-4.558 3.43-2.514 0 1.116 14.015 8.014 16.282 8.014.81 0 2.033.675 2.718 1.5s1.822 1.5 2.528 1.5c.705 0 3.167 1.574 5.469 3.498 2.303 1.924 5.383 4.212 6.845 5.085 5.094 3.042 10.234 13.191 15.364 30.338 3.139 10.49 3.166 10.77 3.23 33.326l.064 22.746 11.75.004L256 213V42l-65.25.002-65.25.002-.255 3.575c-.141 1.966-.928 4.247-1.75 5.069-1.327 1.326-1.495 1.101-1.495-1.995C122 41.555 124.243 42 88.472 42H56.158l-.36 7.75m88.533-4.5c-1.026 1.404-2.877 5.39-3.681 7.927-.454 1.434-.135 1.539 2.195.727 1.5-.523 2.799-1.727 2.888-2.677.088-.95.37-2.964.626-4.477.489-2.892-.484-3.612-2.028-1.5M106 66.083c0 2.437 2.337 2.093 2.823-.416.192-.987-.318-1.667-1.25-1.667-.927 0-1.573.855-1.573 2.083m-15 1.858c0 1.132.45 2.059 1 2.059s1-.648 1-1.441-.45-1.719-1-2.059c-.55-.34-1 .309-1 1.441m-14 2.5c0 .857.45 1.559 1 1.559s1-.423 1-.941-.45-1.219-1-1.559c-.55-.34-1 .084-1 .941m96 2.418c0 1.706 1.184 4.141 2.013 4.141 1.005 0 .053-3.841-1.134-4.575-.483-.298-.879-.103-.879.434m2 6.867c0 .49.688 1.765 1.529 2.833 1.481 1.88 1.521 1.864 1.25-.481-.257-2.234-2.779-4.369-2.779-2.352m-93.816 6.891c1.669 2.474 3.262 4.27 3.54 3.993.744-.745-3.533-7.323-5.17-7.951-.773-.297-.04 1.485 1.63 3.958M137 84l-3.5.737 3.75.131c2.063.073 3.75-.318 3.75-.868s-.113-.941-.25-.868c-.137.072-1.825.463-3.75.868m12.536 1.35c-1.516 1.109-1.709 2.047-1.078 5.25.423 2.145.769 4.845.77 6.001.002 1.652.648 2.12 3.024 2.187 4.293.122 5.429 1.649 2.861 3.847-2.765 2.368-2.672 3.195.296 2.627 2.452-.469 4.159-3.793 2.481-4.83-.508-.314-.681-.961-.385-1.44.295-.478-.035-1.234-.734-1.681-2.543-1.623-3.986-5.347-2.681-6.919.909-1.095.928-2.057.078-3.922-1.287-2.826-2.048-3.01-4.632-1.12m6.063.046c.544 1.419 5.265 2.806 6.645 1.953.416-.257.756-1.115.756-1.908 0-1.013-1.18-1.441-3.969-1.441-2.985 0-3.836.346-3.432 1.396m18.401.045c0 .857.45 1.559 1 1.559s1-.423 1-.941-.45-1.219-1-1.559c-.55-.34-1 .084-1 .941m-83 .337c0 .611 1.08 2.365 2.399 3.899l2.399 2.789-2.899 3.302c-1.594 1.816-2.873 3.848-2.84 4.517.032.668.595.363 1.25-.679s2.136-3.034 3.291-4.426l2.1-2.533-2.407-3.547C91.309 84.702 91 84.391 91 85.778m-2.175 2.896c.426 2.093.678 2.345.969.97.217-1.021-.043-2.293-.576-2.826-.626-.626-.766.031-.393 1.856m50.706-1.724c-.323.522.229 1.386 1.227 1.92 1.459.781 1.813.595 1.813-.949 0-1.992-2.012-2.635-3.04-.971m-63.415.718c-.064.643-.407 1.993-.763 3-.502 1.421-.369 1.576.594.688.682-.629 1.026-1.979.763-3s-.53-1.33-.594-.688m1.954 1.023c-.038 1.205.38 2.469.93 2.809 1.183.731 1.183-.248 0-3-.829-1.928-.862-1.921-.93.191M115.336 96c0 4.125.177 5.813.392 3.75.216-2.062.216-5.437 0-7.5-.215-2.062-.392-.375-.392 3.75m58.164-2c-.34.55-.141 1 .441 1S175 94.55 175 94s-.198-1-.441-1-.719.45-1.059 1m-93.259 7c-2.277 3.3-3.782 6-3.345 6 1.091 0 3.354-2.703 6.489-7.75 3.997-6.435 1.574-5.086-3.144 1.75M78 98c0 1.1.173 2 .383 2 .211 0 .619-.9.907-2 .287-1.1.115-2-.384-2-.498 0-.906.9-.906 2m10.184.496c-.628 1.377-.731 2.504-.23 2.504.984 0 2.506-3.873 1.8-4.58-.236-.235-.943.698-1.57 2.076m86.895-.913c.048 1.165.285 1.402.604.605.289-.722.253-1.585-.079-1.917-.332-.332-.568.258-.525 1.312M75 99c0 1.867.267 2.133 1.2 1.2.933-.933.933-1.467 0-2.4-.933-.933-1.2-.667-1.2 1.2m49 1.083c0 2.437 2.337 2.093 2.823-.416.192-.987-.318-1.667-1.25-1.667-.927 0-1.573.855-1.573 2.083M105 101c0 1.289.506 1.998 1.25 1.75.688-.229 1.25-1.017 1.25-1.75 0-.733-.562-1.521-1.25-1.75-.744-.248-1.25.461-1.25 1.75m29.764 6c-.405 1.375-.698 5.65-.65 9.5.082 6.618.138 6.782 1.026 3 1.134-4.833.785-16.443-.376-12.5m-37.606 5c0 1.375.227 1.938.504 1.25.278-.687.278-1.812 0-2.5-.277-.687-.504-.125-.504 1.25m17.142 6c0 3.025.187 4.263.416 2.75.229-1.513.229-3.987 0-5.5s-.416-.275-.416 2.75m-17.142 2c0 1.375.227 1.938.504 1.25.278-.687.278-1.812 0-2.5-.277-.687-.504-.125-.504 1.25m49.264 2.562c-.367 1.96-.436 5.625-.151 8.146.469 4.167.121 5.16-3.828 10.929-5.224 7.629-6.007 10.218-7.98 26.363-1.51 12.359-3.383 20.673-5.968 26.5-4.083 9.203-5.311 12.504-4.454 11.974.528-.325.959-.115.959.467 0 .582-.675 1.059-1.5 1.059s-1.5.627-1.5 1.393c0 1.563 2.694 2.914 4.09 2.051.501-.309.91-.085.91.497 0 .635 2.503 1.05 6.25 1.036l6.25-.024 5-10.142 5-10.142-.307-17.371c-.267-15.052-.028-18.452 1.789-25.461 2.681-10.343 4.112-13.047 10.66-20.144 2.947-3.194 5.358-6.17 5.358-6.614 0-.444-2.101.257-4.669 1.557-5.932 3.003-9.738 3.049-11.774.141-.856-1.222-1.557-3.022-1.557-4 0-3.182-1.892-1.872-2.578 1.785M74 133.5c0 .917.484 1.505 1.075 1.308.591-.197 1.075-.786 1.075-1.308s-.484-1.111-1.075-1.308c-.591-.197-1.075.391-1.075 1.308m14 1.083c0 .871.534 1.406 1.188 1.188 1.854-.618 2.161-2.771.395-2.771-.87 0-1.583.713-1.583 1.583m15.676.819c-.565 1.472.082 2.598 1.491 2.598.458 0 .833-.9.833-2 0-2.293-1.523-2.685-2.324-.598M113.32 144c0 3.575.182 5.037.403 3.25.222-1.787.222-4.713 0-6.5-.221-1.787-.403-.325-.403 3.25M73 164.5c0 .825.45 1.5 1 1.5s1-.675 1-1.5-.45-1.5-1-1.5-1 .675-1 1.5m14 3c0 .825.45 1.5 1 1.5s1-.675 1-1.5-.45-1.5-1-1.5-1 .675-1 1.5m15.333 3c0 .825.6 1.5 1.334 1.5.733 0 1.333-.675 1.333-1.5s-.6-1.5-1.333-1.5c-.734 0-1.334.675-1.334 1.5m-37.254 2.083c.048 1.165.285 1.402.604.605.289-.722.253-1.585-.079-1.917-.332-.332-.568.258-.525 1.312M194.158 177c0 1.375.227 1.938.504 1.25.278-.687.278-1.812 0-2.5-.277-.687-.504-.125-.504 1.25m-129.079 3.583c.048 1.165.285 1.402.604.605.289-.722.253-1.585-.079-1.917-.332-.332-.568.258-.525 1.312M28.5 182c.34.55.816 1 1.059 1s.441-.45.441-1-.477-1-1.059-1-.781.45-.441 1m167.579 11.583c.048 1.165.285 1.402.604.605.289-.722.253-1.585-.079-1.917-.332-.332-.568.258-.525 1.312M72 195.5c0 .917.484 1.505 1.075 1.308.591-.197 1.075-.786 1.075-1.308s-.484-1.111-1.075-1.308c-.591-.197-1.075.391-1.075 1.308m124.758 7.075c-.295 3.809-.877 7.758-1.293 8.776-.585 1.432-.362 1.772.985 1.5.976-.196 2.329-2.062 3.076-4.238 1.169-3.411 1.114-4.444-.45-8.425l-1.782-4.538-.536 6.925M86 200.5c0 .917.484 1.505 1.075 1.308.591-.197 1.075-.786 1.075-1.308s-.484-1.111-1.075-1.308c-.591-.197-1.075.391-1.075 1.308m-29.157 2.254c-.45 1.54-1.163 2.061-2.25 1.643-1.226-.47-1.597.047-1.608 2.246-.012 2.212-.234 2.518-.985 1.357-.736-1.138-.973-.716-.985 1.75L51 213h5.567c5.311 0 5.536-.104 4.879-2.25-.378-1.238-1.07-2.925-1.537-3.75-.652-1.153-.892-.921-1.036 1-.103 1.375-.454.25-.78-2.5-.449-3.786-.753-4.453-1.25-2.746M102 204.878c0 1.167.423 2.122.941 2.122 1.732 0 2.053-1.76.548-3.009-1.239-1.029-1.489-.88-1.489.887m-21.9 2.813c-.13 2.853-2.1 4.081-2.1 1.309 0-1.165-.45-1.84-1-1.5-.55.34-1 1.716-1 3.059 0 1.908.523 2.441 2.393 2.441 2.793 0 3.561-1.512 2.539-5-.676-2.308-.74-2.331-.832-.309m46.9-.191c0 .825.436 1.5.969 1.5.532 0 .709-.675.393-1.5-.317-.825-.753-1.5-.969-1.5-.216 0-.393.675-.393 1.5" fill="#1976D2" fill-rule="evenodd"/></svg>